<svg width="27" height="34" viewBox="0 0 27 34" fill="none" xmlns="http://www.w3.org/2000/svg">
<path fill-rule="evenodd" clip-rule="evenodd" d="M0.554443 13.3092C0.554443 6.04158 6.44417 0.151855 13.7118 0.151855C18.0819 0.151855 21.951 2.28281 24.343 5.55543C24.7329 6.08884 24.6165 6.83731 24.0831 7.22718C23.5497 7.61705 22.8012 7.50069 22.4114 6.96728C20.4501 4.28388 17.2854 2.54447 13.7118 2.54447C7.95793 2.54447 3.26 7.05627 2.96206 12.7358C5.34436 9.36348 9.27293 7.16137 13.7158 7.16137C20.9824 7.16137 26.8732 13.0521 26.8732 20.3187C26.8732 27.5853 20.9824 33.476 13.7158 33.476C6.48251 33.476 0.612478 27.6392 0.558853 20.4185C0.555933 20.3844 0.554443 20.3499 0.554443 20.315V13.3092ZM13.7158 9.55398C7.77063 9.55398 2.9511 14.3735 2.9511 20.3187C2.9511 26.2639 7.77063 31.0834 13.7158 31.0834C19.661 31.0834 24.4805 26.2639 24.4805 20.3187C24.4805 14.3735 19.661 9.55398 13.7158 9.55398ZM20.0513 18.5644C20.5185 18.0972 20.5185 17.3398 20.0513 16.8726C19.5841 16.4054 18.8266 16.4054 18.3594 16.8726L13.1199 22.1122L9.72797 18.7203C9.26078 18.2531 8.50332 18.2531 8.03614 18.7203C7.56895 19.1875 7.56895 19.9449 8.03614 20.4121L12.2739 24.6499C12.7411 25.1171 13.4986 25.1171 13.9658 24.6499L20.0513 18.5644Z" fill="#001B1B"/>
</svg>
