<svg width="28" height="31" viewBox="0 0 28 31" fill="none" xmlns="http://www.w3.org/2000/svg">
<path fill-rule="evenodd" clip-rule="evenodd" d="M9.05563 3.07812C5.52809 3.07812 2.66845 5.93776 2.66845 9.46529C2.66845 12.9928 5.52809 15.8525 9.05563 15.8525C12.5832 15.8525 15.4428 12.9928 15.4428 9.46529C15.4428 5.93776 12.5832 3.07812 9.05563 3.07812ZM0.213928 9.46529C0.213928 4.58216 4.17249 0.623596 9.05563 0.623596C13.9388 0.623596 17.8973 4.58216 17.8973 9.46529C17.8973 11.4642 17.234 13.3082 16.1154 14.7892L21.85 20.5237C21.8671 20.539 21.8838 20.5548 21.9001 20.5711L25.3469 24.0179C25.3634 24.0344 25.3793 24.0512 25.3947 24.0684L26.8544 25.5282C27.3337 26.0075 27.3337 26.7845 26.8544 27.2638C26.3752 27.7431 25.5981 27.7431 25.1188 27.2638L24.4777 26.6227L20.4556 30.6448C19.9763 31.1241 19.1992 31.1241 18.72 30.6448C18.2407 30.1656 18.2407 29.3885 18.72 28.9092L22.7421 24.8871L21.0309 23.1759L18.8309 25.3759C18.3516 25.8552 17.5745 25.8552 17.0952 25.3759C16.616 24.8967 16.616 24.1196 17.0952 23.6403L19.2953 21.4403L14.3799 16.5248C12.8988 17.6435 11.0547 18.307 9.05563 18.307C4.17249 18.307 0.213928 14.3484 0.213928 9.46529Z" fill="#001B1B"/>
</svg>
