<svg width="203" height="67" viewBox="0 0 203 67" fill="none" xmlns="http://www.w3.org/2000/svg">
<g clip-path="url(#clip0_419_1154)">
<path d="M17.4674 66.0114H0V0.260742H17.4674V66.0114Z" fill="black"/>
<path d="M76.4793 66.0114H59.0117V0.260742H76.4793V66.0114Z" fill="black"/>
<path d="M55.235 66.0114H37.139L21.2441 33.136L37.139 0.260742H55.235L39.3399 33.136L55.235 66.0114Z" fill="black"/>
<path d="M159.724 66.0114H141.628L157.523 33.136H185.532V0.260742H203V66.0114H185.532V50.7649H167.095L159.724 66.0114Z" fill="black"/>
<path d="M141.628 66.0114L125.733 33.136H107.637L123.532 66.0114H141.628Z" fill="black"/>
<path d="M80.2559 66.0114H97.7234V17.8895H145.405V0.260742H80.2559V66.0114Z" fill="black"/>
</g>
<defs>
<clipPath id="clip0_419_1154">
<rect width="203" height="66" fill="white" transform="translate(0 0.260742)"/>
</clipPath>
</defs>
</svg>
