<svg width="166" height="32" viewBox="0 0 166 32" fill="none" xmlns="http://www.w3.org/2000/svg">
<path d="M0.683655 31.5V0.5H3.81756V31.5H0.683655Z" fill="white"/>
<path d="M29.8701 31.5L24.3346 21.7149C22.1302 17.8182 22.1302 13.0148 24.3346 9.11809L29.2099 0.5H25.5899L21.6216 7.51487C18.8561 12.4035 18.8561 18.4295 21.6216 23.3181L26.2501 31.5H29.8701Z" fill="white"/>
<path d="M20.76 31.5L18.1948 24.9937C15.7722 18.849 15.7722 11.9841 18.1948 5.83943L20.2999 0.5H16.9212L15.288 4.64229C12.5626 11.5551 12.5626 19.278 15.288 26.1908L17.3813 31.5H20.76Z" fill="white"/>
<path d="M11.8694 31.5L10.6037 22.554C9.93402 17.8203 9.93402 13.0127 10.6037 8.27902L11.7042 0.5H8.53775L7.50207 7.82065C6.78936 12.8583 6.78936 17.9746 7.50207 23.0123L8.70286 31.5H11.8694Z" fill="white"/>
<path d="M43.0959 26.64V21.4414L44.5535 20.0125L49.3425 26.64H53.4771L46.8736 17.6412L53.2987 10.9224H49.164L43.0959 17.4284V4.93335L39.6454 4.93335L39.6454 26.64H43.0959Z" fill="white"/>
<path d="M61.2946 27.0656C65.816 27.0656 69.207 23.7215 69.207 18.7964C69.207 13.8714 65.816 10.4968 61.2946 10.4968C56.7436 10.4968 53.3526 13.8714 53.3526 18.7964C53.3526 23.7215 56.7436 27.0656 61.2946 27.0656ZM56.7138 18.7964C56.7138 15.7867 58.5283 13.3546 61.2946 13.3546C64.0312 13.3546 65.8457 15.7867 65.8457 18.7964C65.8457 21.7758 64.0312 24.2079 61.2946 24.2079C58.5283 24.2079 56.7138 21.7758 56.7138 18.7964Z" fill="white"/>
<path d="M79.7896 15.6347H83.0914C82.7345 12.2297 80.2061 10.4968 76.9043 10.4968C73.7513 10.4968 70.985 12.3209 70.985 15.1787C70.985 17.6108 72.7994 19.0396 75.2683 19.7085C75.9822 19.9213 76.7258 20.1037 77.4695 20.2861C78.7485 20.6205 79.9384 21.0461 79.9384 22.323C79.9384 23.7823 78.5106 24.3599 77.0531 24.3599C75.2683 24.3599 74.2272 23.5695 73.9298 21.8366H70.5388C70.866 25.6064 73.9298 27.0656 77.0233 27.0656C80.2953 27.0656 83.3294 25.2719 83.3294 22.1406C83.3294 19.6477 81.3662 18.4012 78.8675 17.7324C78.1834 17.5196 77.4992 17.3676 76.8151 17.1852C75.2386 16.7899 74.3165 16.1515 74.3165 15.057C74.3165 13.9626 75.4765 13.1722 76.8448 13.1722C78.2429 13.1722 79.6112 13.8714 79.7896 15.6347Z" fill="white"/>
<path d="M85.6267 26.64H89.0772V19.3437C89.0772 15.4219 90.6537 13.537 92.7954 13.537C94.9371 13.537 95.7402 15.1179 95.7402 17.55V26.64H99.161V16.8203C99.161 13.2026 97.6142 10.4968 93.6283 10.4968C91.2487 10.4968 89.8209 11.8953 89.0177 13.689V4.93335L85.6267 4.93335V26.64Z" fill="white"/>
<path d="M102.201 15.7259H105.473C105.83 14.1754 107.049 13.2026 108.715 13.2026C110.589 13.2026 111.749 13.993 111.749 15.2395C111.749 16.5771 110.857 16.9723 108.894 17.2764C106.663 17.6412 101.457 18.006 101.457 22.3534C101.457 24.8463 103.391 27.0352 106.871 27.0352C109.935 27.0352 111.243 25.3328 111.749 24.0559H111.779V24.7855C111.779 25.424 111.809 26.032 111.868 26.64H115.378C115.2 25.728 115.14 24.2079 115.14 23.0222V16.9723C115.14 13.5978 113.742 10.4664 108.656 10.4664C104.64 10.4664 102.588 13.233 102.201 15.7259ZM104.878 22.2318C104.878 20.9245 105.949 20.2557 108.061 19.8605C110.678 19.3437 111.481 18.5836 111.809 17.702V19.3437C111.809 23.083 109.786 24.3903 107.734 24.3903C105.919 24.3903 104.878 23.4783 104.878 22.2318Z" fill="white"/>
<path d="M118.227 26.64H121.678V19.3437C121.678 15.4219 123.254 13.537 125.396 13.537C127.538 13.537 128.341 15.1179 128.341 17.55V26.64H131.761V16.8203C131.761 13.2026 130.215 10.4968 126.229 10.4968C123.849 10.4968 122.421 11.8953 121.618 13.689V10.9224H118.227V26.64Z" fill="white"/>
<path d="M149.109 21.5326H145.807C145.242 23.3567 143.844 24.2383 141.97 24.2383C139.144 24.2383 137.33 21.867 137.33 18.7964C137.33 15.7259 139.144 13.2938 141.97 13.2938C143.993 13.2938 145.153 14.3882 145.718 15.9083H148.99C148.395 12.6857 145.837 10.4968 142.029 10.4968C137.389 10.4968 133.939 13.7498 133.939 18.7964C133.939 23.7823 137.389 27.0656 142.029 27.0656C145.718 27.0656 148.365 25.0895 149.109 21.5326Z" fill="white"/>
<path d="M165.534 21.9886H162.114C161.578 23.5391 160.091 24.2383 158.336 24.2383C155.897 24.2383 154.171 22.5358 153.904 19.7693H165.742C165.772 19.4957 165.772 19.2525 165.772 19.1004C165.742 14.6314 163.601 10.4968 158.336 10.4968C153.874 10.4968 150.602 13.9626 150.602 18.7356C150.602 23.6911 153.725 27.0656 158.336 27.0656C161.995 27.0656 164.642 25.1807 165.534 21.9886ZM153.933 17.2764C154.261 14.8442 155.897 13.233 158.336 13.233C160.894 13.233 162.173 15.0266 162.381 17.2764H153.933Z" fill="white"/>
</svg>
