<svg
				width="550"
				height="330"
				viewBox="0 0 550 330"
				fill="none"
				xmlns="http://www.w3.org/2000/svg"
			>
				<rect width="550" height="330" rx="16" fill="#B0C2BE" />
				<mask
					id="mask0_466_3"
					 style="mask-type:alpha"
					maskUnits="userSpaceOnUse"
					x="0"
					y="248"
					width="550"
					height="83"
				>
					<path
						d="M0 248.359H550V314C550 322.837 542.837 330 534 330H16C7.16343 330 0 322.837 0 314V248.359Z"
						fill="#D9D9D9"
					/>
				</mask>
				<g mask="url(#mask0_466_3)">
					<path
						d="M-29.5608 233.53C-29.5608 233.53 0.187446 242.082 -32.0207 272.862C-64.2389 303.643 -97.7912 312.33 -84.5265 342.846C-84.5265 342.846 -107.928 319.842 -70.0348 284.968C-32.1421 250.093 -27.1648 244.366 -29.5608 233.53Z"
						fill="#B0C2BE"
					/>
					<path
						d="M-42.0642 217.13C-42.0642 217.13 -10.0225 225.227 -39.4519 262.073C-68.8814 298.92 -102.96 312.949 -84.5117 342.807C-84.5117 342.807 -112.538 322.294 -77.7228 280.332C-42.9079 238.37 -37.9544 228.08 -42.0628 217.14L-42.0642 217.13Z"
						fill="#B0C2BE"
					/>
					<path
						d="M-211.028 813.46C-211.028 813.46 -330.793 791.86 -231.711 649.762C-132.63 507.655 -10.8424 447.865 -86.0083 343.307C-86.0083 343.307 22.0491 411.342 -95.5368 573.478C-213.123 735.614 -228.806 774.476 -211.018 813.459L-211.028 813.46Z"
						fill="#B0C2BE"
					/>
					<path
						d="M-148.851 852.093C-148.851 852.093 -278.18 847.312 -194.622 684.512C-111.055 521.71 8.48069 441.348 -86.0195 343.487C-86.0195 343.487 37.7861 398.403 -62.3409 584.831C-162.469 771.249 -173.3 814.082 -148.851 852.093Z"
						fill="#B0C2BE"
					/>
					<path
						d="M-77.6985 883.156C-77.6985 883.156 -214.651 897.33 -150.454 715.255C-86.2671 533.181 27.892 431.71 -85.9943 343.695C-85.9943 343.695 52.4729 382.608 -25.7048 591.757C-103.883 800.905 -109.019 847.159 -77.6985 883.156Z"
						fill="#B0C2BE"
					/>
					<path
						d="M1.81647 905.007C1.81647 905.007 -140.378 940.056 -99.4323 740.755C-58.4767 541.451 46.9186 418.784 -85.9559 343.901C-85.9559 343.901 65.6195 363.956 13.8943 593.555C-37.831 823.154 -36.4646 872.121 1.80644 905.008L1.81647 905.007Z"
						fill="#B0C2BE"
					/>
					<path
						d="M1.81648 905.007C1.81648 905.007 -140.378 940.056 -99.4323 740.755C-58.4767 541.451 46.9186 418.784 -85.9559 343.901C-85.9559 343.901 65.6195 363.956 13.8943 593.555C-37.831 823.154 -36.4646 872.121 1.80644 905.008L1.81648 905.007Z"
						stroke="#001B1B"
						stroke-width="1.5"
						stroke-miterlimit="10"
					/>
					<path
						d="M88.8028 916.005C88.8028 916.005 -55.8589 973.599 -41.9089 759.784C-27.959 545.969 65.1072 402.49 -85.8352 344.106C-85.8352 344.106 76.7812 342.57 55.9187 589.557C35.0561 836.544 43.6744 887.38 88.8028 916.005Z"
						fill="#B0C2BE"
					/>
					<path
						d="M88.8028 916.005C88.8028 916.005 -55.8589 973.599 -41.9089 759.784C-27.9589 545.969 65.1072 402.491 -85.8352 344.106C-85.8352 344.106 76.7812 342.57 55.9187 589.557C35.0561 836.544 43.6744 887.38 88.8028 916.005Z"
						stroke="#001B1B"
						stroke-width="1.5"
						stroke-miterlimit="10"
					/>
					<path
						d="M182.03 914.595C182.03 914.595 38.0649 996.052 21.4423 771.108C4.81977 546.164 81.8469 382.823 -85.719 344.322C-85.719 344.322 85.3643 318.637 99.5743 579.189C113.773 839.732 130.29 891.455 182.031 914.605L182.03 914.595Z"
						fill="#B0C2BE"
					/>
					<path
						d="M182.03 914.595C182.03 914.595 38.0649 996.052 21.4423 771.108C4.81977 546.164 81.8469 382.823 -85.719 344.322C-85.719 344.322 85.3643 318.637 99.5743 579.189C113.773 839.732 130.29 891.455 182.031 914.605L182.03 914.595Z"
						stroke="#001B1B"
						stroke-width="1.5"
						stroke-miterlimit="10"
					/>
					<mask id="path-14-inside-1_466_3" fill="white">
						<path
							fill-rule="evenodd"
							clip-rule="evenodd"
							d="M-47.8721 303.912C-53.9383 305.91 -58.9295 308.108 -63.0361 310.397C-57.578 308.8 -51.4968 307.462 -45.1811 306.073C-43.8243 305.775 -42.4567 305.474 -41.0822 305.168C-32.0106 303.146 -22.2714 300.818 -12.1014 297.257C-2.11753 293.76 3.45747 290.006 6.48042 286.766C9.37154 283.668 10.0522 280.926 10.032 278.739C10.0315 278.682 10.0305 278.626 10.029 278.569C7.63244 280.924 4.58562 283.051 0.819097 285.135C-8.44309 290.261 -23.4993 295.886 -47.8721 303.912Z"
						/>
					</mask>
					<path
						fill-rule="evenodd"
						clip-rule="evenodd"
						d="M-47.8721 303.912C-53.9383 305.91 -58.9295 308.108 -63.0361 310.397C-57.578 308.8 -51.4968 307.462 -45.1811 306.073C-43.8243 305.775 -42.4567 305.474 -41.0822 305.168C-32.0106 303.146 -22.2714 300.818 -12.1014 297.257C-2.11753 293.76 3.45747 290.006 6.48042 286.766C9.37154 283.668 10.0522 280.926 10.032 278.739C10.0315 278.682 10.0305 278.626 10.029 278.569C7.63244 280.924 4.58562 283.051 0.819097 285.135C-8.44309 290.261 -23.4993 295.886 -47.8721 303.912Z"
						fill="#B0C2BE"
					/>
					<path
						d="M-63.0361 310.397L-62.6149 311.837L-63.7664 309.087L-63.0361 310.397ZM-47.8721 303.912L-48.3413 302.488L-47.8721 303.912ZM-45.1811 306.073L-45.5034 304.608L-45.1811 306.073ZM-41.0822 305.168L-40.7559 306.632L-40.7559 306.632L-41.0822 305.168ZM-12.1014 297.257L-11.6056 298.673L-11.6058 298.673L-12.1014 297.257ZM6.48042 286.766L5.38372 285.743L5.38372 285.743L6.48042 286.766ZM10.032 278.739L8.53207 278.753L8.53207 278.753L10.032 278.739ZM10.029 278.569L8.97769 277.499L11.4383 275.081L11.5285 278.53L10.029 278.569ZM0.819097 285.135L1.54541 286.447L1.54541 286.447L0.819097 285.135ZM-63.7664 309.087C-59.5655 306.745 -54.4851 304.511 -48.3413 302.488L-47.4029 305.337C-53.3916 307.309 -58.2935 309.471 -62.3058 311.707L-63.7664 309.087ZM-44.8589 307.538C-51.1867 308.93 -57.2152 310.257 -62.6149 311.837L-63.4574 308.958C-57.9408 307.343 -51.8069 305.995 -45.5034 304.608L-44.8589 307.538ZM-40.7559 306.632C-42.1328 306.939 -43.5024 307.24 -44.8589 307.538L-45.5034 304.608C-44.1463 304.31 -42.7806 304.009 -41.4084 303.704L-40.7559 306.632ZM-11.6058 298.673C-21.8619 302.264 -31.6715 304.607 -40.7559 306.632L-41.4084 303.704C-32.3498 301.685 -22.6808 299.372 -12.5971 295.842L-11.6058 298.673ZM7.57711 287.789C4.33042 291.269 -1.48947 295.129 -11.6056 298.673L-12.5973 295.842C-2.74558 292.391 2.58452 288.743 5.38372 285.743L7.57711 287.789ZM11.5319 278.725C11.5558 281.305 10.7252 284.416 7.57711 287.789L5.38372 285.743C8.01784 282.92 8.54866 280.547 8.53207 278.753L11.5319 278.725ZM11.5285 278.53C11.5302 278.595 11.5313 278.66 11.5319 278.725L8.53207 278.753C8.53163 278.705 8.53077 278.656 8.52951 278.608L11.5285 278.53ZM0.0927814 283.823C3.78691 281.778 6.70967 279.728 8.97769 277.499L11.0803 279.639C8.5552 282.12 5.38432 284.323 1.54541 286.447L0.0927814 283.823ZM-48.3413 302.488C-23.9477 294.454 -9.02618 288.869 0.0927833 283.823L1.54541 286.447C-7.86 291.653 -23.0509 297.317 -47.4029 305.337L-48.3413 302.488Z"
						fill="#001B1B"
						mask="url(#path-14-inside-1_466_3)"
					/>
					<path
						d="M280.033 899.309C280.033 899.309 140.3 1005.53 89.8382 773.518C39.3768 541.5 96.6049 359.827 -85.5701 344.499C-85.5701 344.499 90.9046 292.395 144.026 561.883C197.148 831.371 222.127 882.837 280.021 899.3L280.033 899.309Z"
						fill="#B0C2BE"
					/>
					<path
						d="M280.033 899.309C280.033 899.309 140.3 1005.53 89.8382 773.518C39.3768 541.5 96.6049 359.827 -85.5701 344.499C-85.5701 344.499 90.9046 292.395 144.026 561.883C197.148 831.371 222.127 882.837 280.021 899.3L280.033 899.309Z"
						stroke="#001B1B"
						stroke-width="1.5"
						stroke-miterlimit="10"
					/>
					<path
						d="M381.045 868.851C381.045 868.851 249.4 1000.28 162.264 765.897C75.1287 531.518 108.795 333.664 -85.3593 344.674C-85.3593 344.674 92.9188 264.229 188.356 537.268C283.793 810.308 317.648 860.26 381.045 868.851Z"
						fill="#B0C2BE"
					/>
					<path
						d="M381.045 868.851C381.045 868.851 249.4 1000.28 162.264 765.897C75.1287 531.518 108.795 333.664 -85.3593 344.674C-85.3593 344.674 92.9188 264.229 188.356 537.268C283.793 810.308 317.648 860.26 381.045 868.851Z"
						stroke="#001B1B"
						stroke-width="1.5"
						stroke-miterlimit="10"
					/>
					<path
						d="M482.998 822.17C482.998 822.17 363.562 978.659 237.435 747.248C111.309 515.838 117.794 304.612 -85.1263 344.834C-85.1263 344.834 90.9006 234.582 231.433 505.069C371.965 775.556 414.948 822.61 482.998 822.17Z"
						fill="#B0C2BE"
					/>
					<path
						d="M482.998 822.17C482.998 822.17 363.562 978.659 237.435 747.248C111.309 515.838 117.794 304.612 -85.1263 344.834C-85.1263 344.834 90.9006 234.582 231.433 505.069C371.965 775.556 414.948 822.61 482.998 822.17Z"
						stroke="#001B1B"
						stroke-width="1.5"
						stroke-miterlimit="10"
					/>
					<path
						d="M583.568 758.398C583.568 758.398 480.665 939.209 313.893 716.659C147.122 494.12 123.023 272.974 -84.8638 344.954C-84.8638 344.954 84.4317 203.959 272.095 465.099C459.77 726.247 511.938 768.932 583.568 758.398Z"
						fill="#B0C2BE"
					/>
					<path
						d="M583.568 758.398C583.568 758.398 480.665 939.209 313.893 716.659C147.122 494.12 123.023 272.974 -84.8638 344.954C-84.8638 344.954 84.4317 203.959 272.095 465.099C459.77 726.247 511.938 768.932 583.568 758.398Z"
						stroke="#001B1B"
						stroke-width="1.5"
						stroke-miterlimit="10"
					/>
					<path
						d="M680.157 677.037C680.157 677.037 598.237 880.747 389.954 673.462C181.671 466.176 123.885 239.234 -84.5715 345.045C-84.5715 345.045 73.1216 173 309.074 417.428C545.027 661.855 606.24 698.626 680.157 677.037Z"
						fill="#B0C2BE"
					/>
					<path
						d="M680.157 677.037C680.157 677.037 598.237 880.747 389.954 673.462C181.671 466.176 123.885 239.234 -84.5716 345.045C-84.5716 345.045 73.1216 173 309.074 417.428C545.027 661.855 606.24 698.626 680.157 677.037Z"
						stroke="#001B1B"
						stroke-width="1.5"
						stroke-miterlimit="10"
					/>
					<path
						d="M770.012 577.911C770.012 577.911 713.546 802.389 463.772 617.166C213.988 431.944 119.876 203.93 -84.2282 345.098C-84.2282 345.098 56.6952 142.414 341.071 362.255C625.446 582.097 695.313 611.363 770.023 577.92L770.012 577.911Z"
						fill="#B0C2BE"
					/>
					<path
						d="M770.012 577.911C770.012 577.911 713.546 802.389 463.772 617.166C213.988 431.944 119.876 203.93 -84.2281 345.099C-84.2281 345.099 56.6952 142.414 341.071 362.255C625.446 582.097 695.313 611.363 770.023 577.92L770.012 577.911Z"
						stroke="#001B1B"
						stroke-width="1.5"
						stroke-miterlimit="10"
					/>
					<path
						d="M850.142 461.296C850.142 461.296 823.546 703.651 533.269 547.559C243.002 391.465 110.454 167.732 -83.8891 345.102C-83.8891 345.102 34.8792 112.956 366.66 300.011C698.441 487.066 776.335 507.22 850.142 461.296Z"
						fill="#B0C2BE"
					/>
					<path
						d="M850.142 461.296C850.142 461.296 823.546 703.651 533.269 547.559C243.002 391.465 110.454 167.732 -83.8892 345.102C-83.8892 345.102 34.8793 112.956 366.66 300.011C698.441 487.066 776.335 507.22 850.142 461.296Z"
						stroke="#001B1B"
						stroke-width="1.5"
						stroke-miterlimit="10"
					/>
					<path
						d="M919.141 326.188C919.141 326.188 926.615 582.752 597.964 463.035C269.312 343.308 96.9049 129.714 -81.8449 343.383C-81.8449 343.383 9.27037 83.8093 386.191 229.658C763.113 375.516 848.123 384.988 919.141 326.188Z"
						fill="#B0C2BE"
					/>
					<path
						d="M919.141 326.188C919.141 326.188 926.615 582.752 597.964 463.035C269.312 343.308 96.9049 129.714 -81.8449 343.383C-81.8449 343.383 9.27042 83.8093 386.191 229.658C763.113 375.516 848.123 384.988 919.141 326.188Z"
						stroke="#001B1B"
						stroke-width="1.5"
						stroke-miterlimit="10"
					/>
					<path
						d="M968.878 178.798C968.878 178.798 1014.33 445.136 650.563 369C286.798 292.873 73.8911 95.7488 -83.1265 344.943C-83.1265 344.943 -78.2777 337.122 -73.3219 323.722C-49.4312 259.124 46.7309 77.4024 393.287 157.091C811.721 253.312 902.663 250.606 968.878 178.798Z"
						fill="#B0C2BE"
					/>
				</g>
			</svg>