<svg width="359" height="400" viewBox="0 0 359 400" fill="none" xmlns="http://www.w3.org/2000/svg">
<rect width="359" height="400" fill="#001B1B"/>
<path d="M102 280.329V119H118.669V280.329H102Z" fill="#F2FFED"/>
<path d="M257.24 280.329L227.798 229.406C216.073 209.127 216.073 184.129 227.798 163.85L253.729 119H234.474L213.367 155.506C198.658 180.948 198.658 212.308 213.367 237.749L237.986 280.329H257.24Z" fill="#F2FFED"/>
<path d="M208.785 280.329L195.14 246.469C182.255 214.491 182.255 178.765 195.14 146.787L206.337 119H188.366L179.679 140.557C165.183 176.532 165.183 216.724 179.679 252.699L190.813 280.329H208.785Z" fill="#F2FFED"/>
<path d="M161.496 280.329L154.764 233.772C151.202 209.137 151.202 184.118 154.764 159.483L160.618 119H143.775L138.267 157.098C134.476 183.315 134.476 209.941 138.267 236.158L144.653 280.329H161.496Z" fill="#F2FFED"/>
</svg>
