<svg width="35" height="35" viewBox="0 0 35 35" fill="none" xmlns="http://www.w3.org/2000/svg">
<path fill-rule="evenodd" clip-rule="evenodd" d="M14.9559 2.85561C8.21844 2.85561 2.75667 8.31738 2.75667 15.0548C2.75667 21.7923 8.21844 27.254 14.9559 27.254C21.6933 27.254 27.1551 21.7923 27.1551 15.0548C27.1551 8.31738 21.6933 2.85561 14.9559 2.85561ZM0.3974 15.0548C0.3974 7.01439 6.91545 0.496338 14.9559 0.496338C22.9963 0.496338 29.5144 7.01439 29.5144 15.0548C29.5144 23.0952 22.9963 29.6133 14.9559 29.6133C6.91545 29.6133 0.3974 23.0952 0.3974 15.0548Z" fill="#001B1B"/>
<path fill-rule="evenodd" clip-rule="evenodd" d="M20.0398 20.1423C20.5005 19.6816 21.2474 19.6816 21.708 20.1423L33.8677 32.302C34.3284 32.7626 34.3284 33.5096 33.8677 33.9702C33.4071 34.4309 32.6602 34.4309 32.1995 33.9702L20.0398 21.8105C19.5791 21.3498 19.5791 20.6029 20.0398 20.1423Z" fill="#001B1B"/>
<path fill-rule="evenodd" clip-rule="evenodd" d="M10.7245 9.05542C11.2098 9.09029 11.6238 9.41947 11.7672 9.88436L13.781 16.4138L15.0151 14.2866C15.2261 13.9228 15.6149 13.6989 16.0354 13.6989H32.9878C33.6393 13.6989 34.1674 14.2271 34.1674 14.8786C34.1674 15.5301 33.6393 16.0582 32.9878 16.0582H16.7149L14.4687 19.9298C14.2335 20.3352 13.7807 20.5629 13.315 20.51C12.8494 20.457 12.4592 20.1334 12.3211 19.6855L10.4067 13.4783L9.50349 15.3838C9.30828 15.7957 8.89329 16.0582 8.43753 16.0582H5.12196C4.47046 16.0582 3.94232 15.5301 3.94232 14.8786C3.94232 14.2271 4.47046 13.6989 5.12196 13.6989H7.69123L9.57402 9.72676C9.7824 9.28715 10.2393 9.02055 10.7245 9.05542Z" fill="#001B1B"/>
</svg>
