<svg width="177" height="40" viewBox="0 0 177 40" fill="none" xmlns="http://www.w3.org/2000/svg">
<path d="M55.1107 36.8612V12.2827H58.7498L59.0684 14.2755H59.2596C60.2791 12.9255 62.0633 11.9612 64.4917 11.9612C68.9592 11.9612 72.5912 15.6327 72.5912 21.097C72.5912 26.5612 69.0158 30.2327 64.4846 30.2327C62.0633 30.2327 60.3995 29.2041 59.5074 28.047H59.3162V36.797H55.1036V36.8612H55.1107ZM68.3786 21.097C68.3786 17.8827 66.3396 15.8827 63.8474 15.8827C61.3553 15.8827 59.3162 17.8755 59.3162 21.097C59.3162 24.3184 61.3553 26.3112 63.8474 26.3112C66.3396 26.3112 68.3786 24.3184 68.3786 21.097Z" fill="#808D8D"/>
<path d="M74.694 21.097C74.694 15.7541 78.5243 11.9612 83.5582 11.9612C88.6628 11.9612 92.4223 15.8255 92.4223 21.097C92.4223 26.4398 88.592 30.2327 83.5582 30.2327C78.4535 30.2327 74.694 26.3755 74.694 21.097ZM88.2097 21.097C88.2097 17.947 86.1707 15.8827 83.5511 15.8827C81.0023 15.8827 78.8924 17.9398 78.8924 21.097C78.8924 24.2541 80.9952 26.3112 83.5511 26.3112C86.107 26.3112 88.2097 24.2541 88.2097 21.097Z" fill="#808D8D"/>
<path d="M95.4809 29.9112V5.52551H99.6935V29.9112H95.4809Z" fill="#808D8D"/>
<path d="M115.383 12.2827H119.85L112.26 33.7112C111.496 35.8327 110.476 36.8612 107.729 36.8612H103.651V32.9327H107.092C107.729 32.9327 108.048 32.6112 108.239 32.0969L108.621 30.9398L101.478 12.2755H105.945L110.476 24.5041H111.177L115.262 12.2755H115.383V12.2827Z" fill="#808D8D"/>
<path d="M120.679 30.8184H124.955C125.146 31.9755 126.293 33.5184 128.976 33.5184C131.525 33.5184 133.189 31.9112 133.189 29.4612V27.0184H132.998C132.042 28.047 130.322 28.947 128.148 28.947C123.681 28.947 120.176 25.4755 120.176 20.4541C120.176 15.4327 123.617 11.9612 128.148 11.9612C130.442 11.9612 132.169 12.9255 133.253 14.2112H133.444L133.762 12.2827H137.402V29.4612C137.402 34.1612 134.279 37.247 128.983 37.247C123.036 37.247 120.806 33.3255 120.679 30.8184ZM133.118 20.4541C133.118 17.6898 131.207 15.7541 128.714 15.7541C126.293 15.7541 124.374 17.6827 124.374 20.4541C124.374 23.2255 126.286 25.1541 128.714 25.1541C131.143 25.1541 133.118 23.2184 133.118 20.4541Z" fill="#808D8D"/>
<path d="M140.262 21.097C140.262 15.7541 144.092 11.9612 149.126 11.9612C154.231 11.9612 157.99 15.8255 157.99 21.097C157.99 26.4398 154.16 30.2327 149.126 30.2327C144.021 30.2327 140.262 26.3755 140.262 21.097ZM153.785 21.097C153.785 17.947 151.682 15.8827 149.126 15.8827C146.577 15.8827 144.467 17.9398 144.467 21.097C144.467 24.2541 146.57 26.3112 149.126 26.3112C151.675 26.3112 153.785 24.2541 153.785 21.097Z" fill="#808D8D"/>
<path d="M160.928 29.9112V12.2827H164.568L164.886 13.9541H165.077C165.778 13.1827 167.499 11.9612 170.118 11.9612C174.14 11.9612 177.007 14.8541 177.007 19.3612V29.9755H172.794V19.9398C172.794 17.6898 171.201 16.0112 169.028 16.0112C166.854 16.0112 165.134 17.747 165.134 19.9398V29.9755H160.928V29.9112Z" fill="#808D8D"/>
<path d="M32.4052 27.8541L42.7349 21.8041C43.3084 21.4826 43.627 20.9041 43.627 20.2612V8.1612C43.627 7.51834 43.3084 6.93977 42.7349 6.61834L32.4052 0.568342C31.8317 0.246913 31.1945 0.246913 30.621 0.568342L20.2842 6.61834C19.7107 6.93977 19.3921 7.51834 19.3921 8.1612V29.7183L12.121 33.9683L4.8498 29.7183V21.2898L12.121 17.0398L16.907 19.8041V14.1398L13.013 11.8898C12.7582 11.7612 12.4396 11.6326 12.121 11.6326C11.8024 11.6326 11.4838 11.6969 11.2289 11.8898L0.89208 17.9469C0.3186 18.2683 0 18.8469 0 19.4898V31.5898C0 32.2326 0.3186 32.8112 0.89208 33.1326L11.2218 39.1826C11.7953 39.5041 12.4325 39.5041 13.006 39.1826L23.3357 33.1326C23.9092 32.8112 24.2278 32.2326 24.2278 31.5898V10.0326L24.3552 9.96834L31.506 5.78263L38.7772 10.0326V18.4612L31.506 22.7041L26.7199 19.9398V25.6041L30.6139 27.8541C31.1874 28.1755 31.8246 28.1755 32.4052 27.8541Z" fill="#808D8D"/>
</svg>
